<?xml version="1.0" encoding="utf-8"?>
<!-- Generator: Adobe Illustrator 25.1.0, SVG Export Plug-In . SVG Version: 6.00 Build 0)  -->
<svg version="1.1" id="Marcas" xmlns="http://www.w3.org/2000/svg" xmlns:xlink="http://www.w3.org/1999/xlink" x="0px" y="0px"
	 viewBox="0 0 263.7 146.7" style="enable-background:new 0 0 263.7 146.7;" xml:space="preserve">
<style type="text/css">
	.st0{fill-rule:evenodd;clip-rule:evenodd;fill:#025C75;}
</style>
<path class="st0" d="M160.5,112.9h5.5l-0.2-15.2h0.1l7.8,15.2h7.3V90.6h-5.4l0.1,15.1h-0.1l-7.5-15.1h-7.6L160.5,112.9L160.5,112.9z
	 M189.2,112.9h5.9V95h5.5v-4.4h-16.9V95h5.5V112.9z M203.3,112.9h5.9v-8.8h1.2c2.2,0,3,1,4.2,4.8l1.3,4h6.2l-2.2-6.1
	c-1.1-2.7-1.2-4.4-3.2-4.9v-0.1c2.9-0.7,4.3-2.7,4.3-5.6c0-3.8-3.2-5.6-7.2-5.6h-10.6L203.3,112.9L203.3,112.9z M209.2,94.8h1.6
	c2.3,0,4.3,0.4,4.3,2.5c0,2.5-2.4,2.6-4.3,2.6h-1.6V94.8L209.2,94.8z M18.7,112.9h6l1.8-4.8h8.4l1.7,4.8H43l-8.6-22.3h-7.3
	C27.2,90.6,18.7,112.9,18.7,112.9z M33.5,103.9h-5.6l2.9-8.7h0.1L33.5,103.9L33.5,103.9z M0,112.9h9.4c4,0,8.7-1.1,8.7-6.4
	c0-2.7-1.5-4.3-4.5-4.9v-0.1c2.5-0.8,3.9-2.4,3.9-5.2c0-3.8-3.1-5.7-7.2-5.7H0V112.9L0,112.9z M5.9,103.4h1.8c2,0,4.4,0.2,4.4,2.7
	c0,2.3-2.3,2.6-4.4,2.6H5.9V103.4z M5.9,94.8h1.7c2,0,3.9,0.2,3.9,2.2c0,1.9-2,2.4-4,2.4H5.9V94.8z M44.4,112.9h5.5l-0.2-15.2h0.1
	l7.8,15.2h7.4V90.6h-5.4l0.1,15.1h-0.1L52,90.6h-7.6L44.4,112.9L44.4,112.9z M86.7,107.7c-1.8,0.7-3.7,1.1-5.6,1.2
	c-4.3,0-7.4-2.7-7.4-7c0-4.2,2.8-7.2,7-7.2c2,0,4,0.5,5.8,1.6l0.5-4.8c-2.1-0.7-4.4-1.1-6.6-1.2c-7.3,0-12.8,3.9-12.8,11.6
	c0,8.4,6.9,11.4,12.8,11.4c2.2,0,4.5-0.3,6.6-0.9L86.7,107.7L86.7,107.7z M87.6,101.7c0,7.1,3.9,11.5,11.2,11.5s11.2-4.4,11.2-11.5
	s-3.8-11.5-11.2-11.5S87.6,94.6,87.6,101.7L87.6,101.7z M93.7,101.7c0-3.9,1.4-7.1,5-7.1s5,3.3,5,7.1c0,3.7-1.4,7.1-5,7.1
	S93.7,105.4,93.7,101.7z M138.4,107.7c-1.8,0.7-3.7,1.1-5.6,1.2c-4.3,0-7.4-2.7-7.4-7c0-4.2,2.8-7.2,7-7.2c2,0,4,0.5,5.8,1.6
	l0.5-4.8c-2.2-0.7-4.4-1.1-6.7-1.2c-7.3,0-12.8,3.9-12.8,11.6c0,8.4,6.9,11.4,12.8,11.4c2.2,0,4.5-0.3,6.6-0.9L138.4,107.7
	L138.4,107.7z M141.4,112.9h16.1v-4.2h-10.1v-5h9.2v-4.2h-9.2v-4.6h9.8v-4.2h-15.7L141.4,112.9L141.4,112.9z M222.8,112.9h6l1.8-4.8
	h8.4l1.7,4.8h6.5l-8.6-22.3h-7.3L222.8,112.9L222.8,112.9z M237.5,103.9h-5.6l2.9-8.7h0.1L237.5,103.9z M248.5,112.9h15.1v-4.4h-9.2
	V90.6h-5.9V112.9L248.5,112.9z M117.2,79.4h22.3l7-7h-22.3V59.9h4.2l7-7h-16.8V36.2l-7,7v4.2H99.1V25.1l-7,7v22.3h12.6v12.5h12.6
	V79.4z M142.3,29.3V12.6l7-7v16.8H166l-7,7L142.3,29.3z M124.2,5.6h-5.6v16.7h16.7l-7,7h-16.7v-4.2h-7v-5.6L124.2,0V5.6z M166,53
	v-5.6h5.6L152,66.9h-5.6v-7h-4.2V43.2l7-7V53H166z M49.4,146.3h8.1c7.6,0,13.2-2.9,13.2-11.2c0-8.6-5.4-11.1-13.2-11.1h-8.1V146.3
	L49.4,146.3z M55.3,128.4h2.3c4.3,0,6.9,2.3,6.9,6.7s-2.5,6.7-6.9,6.7h-2.3C55.3,141.9,55.3,128.4,55.3,128.4z M72,135.2
	c0,7.1,3.9,11.5,11.2,11.5s11.2-4.4,11.2-11.5s-3.8-11.5-11.2-11.5S72,128,72,135.2z M78.1,135.2c0-3.9,1.4-7.1,5-7.1s5,3.3,5,7.1
	c0,3.7-1.4,7.1-5,7.1S78.1,138.8,78.1,135.2z M104.6,146.3h9.4c4,0,8.7-1.1,8.7-6.4c0-2.7-1.5-4.3-4.5-4.9v-0.1
	c2.5-0.8,3.9-2.4,3.9-5.2c0-3.8-3.1-5.7-7.2-5.7h-10.3L104.6,146.3L104.6,146.3z M110.6,136.8h1.8c2,0,4.4,0.2,4.4,2.6
	c0,2.3-2.3,2.6-4.4,2.6h-1.8L110.6,136.8L110.6,136.8z M110.6,128.2h1.7c2,0,3.9,0.2,3.9,2.2c0,1.9-2,2.4-4,2.4h-1.7L110.6,128.2
	L110.6,128.2z M125.4,146.3h5.9v-8.8h1.2c2.2,0,3,1,4.2,4.8l1.3,4h6.2l-2.2-6.1c-1.1-2.7-1.2-4.4-3.2-4.9v-0.1
	c2.9-0.7,4.3-2.6,4.3-5.6c0-3.8-3.2-5.6-7.2-5.6h-10.6L125.4,146.3L125.4,146.3z M131.4,128.2h1.6c2.3,0,4.3,0.4,4.3,2.5
	c0,2.5-2.4,2.6-4.3,2.6h-1.6V128.2L131.4,128.2z M144.9,146.3h6l1.8-4.8h8.3l1.7,4.8h6.5l-8.6-22.3h-7.3L144.9,146.3L144.9,146.3z
	 M159.7,137.3h-5.6l2.9-8.7h0.1L159.7,137.3L159.7,137.3z M189.2,146.3h5.9V124h-5.9V146.3L189.2,146.3z M199.2,146.3h15.1v-4.4
	h-9.2V124h-5.9V146.3L199.2,146.3z M170.1,145.7c2.2,0.7,4.4,1,6.6,1c5,0,9.8-1.6,9.8-7.4c0-8-10.5-5.6-10.5-9.2
	c0-1.9,2.5-2.1,4-2.1c1.7,0,3.4,0.3,5,1l0.4-4.6c-1.9-0.6-3.8-0.9-5.8-0.8c-4.5,0-9.7,1.5-9.7,6.8c0,8.1,10.5,5.5,10.5,9.6
	c0,1.8-1.8,2.2-3.7,2.2c-2.1,0-4.2-0.5-6.1-1.5L170.1,145.7z"/>
</svg>
